<?xml version="1.0" standalone="no"?><!DOCTYPE svg PUBLIC "-//W3C//DTD SVG 1.1//EN" "http://www.w3.org/Graphics/SVG/1.1/DTD/svg11.dtd"><svg t="1561443079041" class="icon" viewBox="0 0 1024 1024" version="1.1" xmlns="http://www.w3.org/2000/svg" p-id="1132" xmlns:xlink="http://www.w3.org/1999/xlink" width="200" height="200"><defs><style type="text/css"></style></defs><path d="M1004.6 955.8l-175.8-190.2c5.8-7.8 11-14.8 16-21.8 72.2-99.8 100.4-211.8 84.6-333.2C894.4 143 631.2-37.6 367.6 23.4 132.2 77.8-24 311.4 16.4 548.6c37 217.6 221.2 378.2 442.4 385.6 68.8 2.2 135-10.6 198.2-38.2 16.4-7.2 30.4-19.2 25.2-37.6-3.4-12.4-14.8-25.4-26.2-31.4-7.8-4.2-22.2 1.4-32.6 5.4-65.2 25-131.8 35.6-201.8 27C228 835 54.6 657 86.6 421.2 117.4 193.2 325.2 49.4 552.4 92c166.2 31 303.2 190.4 308.8 359.6 3.6 106.4-27.8 200.4-99 280.6-26.6 30-26.4 42 1.4 71.8l51 54.6 136.2 147.2c9.6 10.4 26.2 11.2 36.6 1.4l15.8-14.6c10.4-9.8 11-26.2 1.4-36.8z" fill="#8a8a8a" p-id="1133"></path></svg>